<?xml version="1.0" standalone="no"?>
<!DOCTYPE svg PUBLIC "-//W3C//DTD SVG 20010904//EN"
 "http://www.w3.org/TR/2001/REC-SVG-20010904/DTD/svg10.dtd">
<svg version="1.0" xmlns="http://www.w3.org/2000/svg"
 width="2000.000000pt" height="860.000000pt" viewBox="0 0 2000.000000 860.000000"
 preserveAspectRatio="xMidYMid meet">

<g transform="translate(0.000000,860.000000) scale(0.100000,-0.100000)"
fill="#000000" stroke="none">
<path d="M10263 8581 c-207 -4 -346 -10 -351 -16 -5 -5 -17 -52 -27 -104 -21
-110 -16 -264 12 -376 14 -54 17 -103 16 -220 -2 -82 -7 -447 -13 -810 -22
-1476 -32 -4072 -20 -5255 7 -630 12 -1152 12 -1160 0 -8 -4 -46 -11 -85 -20
-129 -7 -424 21 -483 13 -26 14 -26 110 -23 114 3 1059 10 1103 8 17 -1 174
-1 350 -2 259 0 319 2 317 13 -4 23 -15 552 -14 692 5 483 2 5456 -3 6516 l-7
1291 -187 6 c-298 11 -938 15 -1308 8z"/>
<path d="M12255 6537 c-3 -6 -4 -1468 -3 -3247 l3 -3235 315 1 c173 0 374 0
445 0 243 -2 1129 -1 1360 1 127 1 410 1 630 0 l400 -2 -1 1795 c0 987 -1
2130 -1 2540 0 410 0 1051 -1 1425 l-1 680 -428 -3 c-235 -2 -615 -7 -843 -11
-327 -5 -420 -4 -440 6 -35 18 -158 16 -194 -2 -34 -18 -78 -19 -94 -3 -8 8
-92 14 -264 20 -248 7 -751 33 -836 43 -29 3 -44 1 -47 -8z"/>
<path d="M5693 6103 c-468 -488 -1075 -1128 -1344 -1418 -175 -189 -242 -255
-258 -255 -5 0 -33 -30 -62 -67 -29 -38 -112 -129 -184 -203 -120 -122 -538
-565 -966 -1020 -298 -318 -423 -462 -456 -523 -15 -29 -17 -74 -18 -424 0
-216 0 -393 0 -393 0 6 2316 2308 2367 2353 60 53 82 67 98 62 30 -10 478
-468 626 -640 200 -235 406 -464 699 -780 132 -143 356 -387 499 -544 95 -104
180 -215 196 -256 19 -48 27 -491 19 -1065 -8 -569 -13 -674 -35 -794 -8 -43
-14 -80 -14 -82 0 -2 538 -4 1195 -4 l1195 0 0 1416 -1 1416 -212 216 c-933
953 -1206 1232 -1437 1471 -146 150 -290 290 -320 311 -57 39 -98 82 -160 166
-42 57 -506 523 -646 648 -54 49 -122 117 -150 150 -50 60 -424 466 -429 466
-2 0 -93 -93 -202 -207z"/>
<path d="M16133 4060 c-68 -41 -66 -31 -66 -448 0 -207 0 -516 -1 -687 -5
-1191 6 -2802 19 -2837 10 -26 72 -28 800 -31 l680 -2 -1 60 c-1 33 -3 83 -5
110 -2 28 -1 309 4 625 4 316 4 751 -1 965 -5 215 -5 394 0 399 10 12 9 856
-1 1296 -5 205 -5 344 2 377 11 62 1 157 -19 178 -13 13 -91 14 -587 11 -315
-3 -598 -7 -631 -11 -37 -5 -62 -3 -69 4 -18 18 -89 13 -124 -9z"/>
<path d="M3923 2308 c-418 -359 -628 -541 -1008 -874 -324 -283 -316 -276
-360 -309 -60 -44 -173 -155 -197 -193 -20 -33 -21 -49 -26 -468 -5 -491 -12
-456 79 -430 48 14 248 16 1744 18 l1690 3 2 572 3 571 -38 33 c-44 38 -827
787 -1208 1156 -150 145 -274 263 -277 263 -3 0 -185 -154 -404 -342z"/>
<path d="M0 511 c0 -276 1 -501 3 -501 1 0 18 5 37 10 103 30 181 32 973 31
l807 -2 0 478 0 478 -910 4 -910 3 0 -501z"/>
<path d="M18146 760 c-10 -52 -25 -285 -31 -502 l-7 -208 936 0 935 0 0 370 1
370 -914 0 -913 0 -7 -30z"/>
</g>
</svg>
