<?xml version="1.0" standalone="no"?>
<!DOCTYPE svg PUBLIC "-//W3C//DTD SVG 20010904//EN"
 "http://www.w3.org/TR/2001/REC-SVG-20010904/DTD/svg10.dtd">
<svg version="1.0" xmlns="http://www.w3.org/2000/svg"
 width="4267.000000pt" height="4267.000000pt" viewBox="0 0 4267.000000 4267.000000"
 preserveAspectRatio="xMidYMid meet">
<metadata>
Created by potrace 1.14, written by Peter Selinger 2001-2017
</metadata>
<g transform="translate(0.000000,4267.000000) scale(0.100000,-0.100000)"
fill="#000000" stroke="none">
<path d="M22408 41985 c-3 -3 -310 -7 -684 -9 -373 -2 -696 -7 -717 -11 -49
-9 -66 -36 -77 -122 -4 -37 -14 -86 -20 -108 -29 -96 -36 -273 -19 -485 14
-194 30 -282 80 -445 8 -29 10 -99 5 -260 -15 -450 -34 -1485 -46 -2525 -4
-415 -11 -885 -14 -1045 -14 -696 -21 -2634 -21 -6105 0 -3609 6 -4790 26
-5164 11 -222 12 -369 1 -381 -28 -32 -33 -129 -28 -510 5 -395 10 -504 25
-540 5 -11 15 -36 22 -55 7 -19 17 -41 22 -47 12 -16 49 -17 64 -2 8 8 66 11
181 10 114 -1 177 2 195 10 21 9 39 10 79 1 69 -15 183 -16 844 -13 302 1 561
0 575 -4 29 -7 350 10 468 25 69 9 94 8 136 -5 43 -12 153 -14 703 -14 l652 0
-4 22 c-23 113 -28 185 -20 265 12 121 10 347 -5 617 -8 128 -13 401 -12 615
4 1066 0 12162 -4 14061 l-5 2187 -183 6 c-100 3 -227 8 -282 11 -366 17
-1923 33 -1937 20z"/>
<path d="M25860 30950 l0 -6770 618 0 c486 0 632 3 690 14 61 12 112 12 300 2
341 -17 2230 -15 2642 3 425 19 537 18 635 -2 71 -15 173 -17 878 -17 l797 0
-1 3628 c0 3338 -8 4861 -27 5117 -4 55 -2 314 5 575 12 499 20 2036 15 2932
-2 290 0 679 4 864 l7 337 -484 -7 c-266 -4 -707 -11 -979 -15 -272 -5 -810
-14 -1195 -20 -385 -5 -738 -13 -785 -16 -74 -5 -89 -4 -110 13 -41 31 -102
42 -227 42 -132 0 -215 -18 -236 -50 -18 -30 -105 -28 -151 3 -50 35 -163 46
-531 52 -176 2 -349 7 -385 9 -36 3 -130 7 -210 11 -80 3 -176 8 -215 10 -38
3 -187 12 -330 20 -143 8 -326 20 -408 25 -81 6 -186 10 -232 10 l-85 0 0
-6770z"/>
<path d="M12451 37125 c-58 -60 -181 -189 -275 -285 -94 -96 -186 -193 -205
-215 -19 -22 -113 -123 -210 -224 -97 -101 -196 -205 -220 -230 -24 -25 -89
-93 -145 -151 -56 -58 -230 -240 -386 -405 -156 -165 -295 -312 -309 -326 -45
-45 -324 -339 -344 -362 -10 -12 -94 -101 -186 -197 -161 -169 -446 -470 -562
-595 -31 -33 -98 -105 -150 -161 -52 -55 -151 -163 -219 -240 -192 -214 -382
-404 -405 -404 -27 0 -155 -133 -227 -235 -31 -44 -85 -107 -120 -141 -97 -94
-382 -391 -823 -859 -98 -104 -204 -216 -236 -250 -31 -33 -71 -76 -89 -95
-17 -19 -71 -75 -119 -125 -48 -49 -206 -216 -351 -370 -144 -154 -274 -291
-289 -305 -14 -14 -48 -50 -75 -80 -28 -30 -97 -105 -155 -166 -58 -61 -133
-140 -166 -175 -32 -35 -91 -98 -130 -139 -113 -121 -279 -301 -326 -355 -24
-27 -67 -75 -95 -105 -138 -149 -301 -364 -341 -450 -24 -50 -28 -115 -20
-303 9 -205 9 -1248 1 -1307 -5 -31 214 184 1968 1940 2221 2223 3050 3040
3125 3081 28 15 53 0 170 -106 164 -149 882 -882 1012 -1035 99 -115 107 -125
176 -205 33 -38 71 -83 85 -99 14 -16 30 -34 35 -40 6 -6 37 -43 70 -81 33
-39 62 -72 65 -75 3 -3 37 -41 75 -85 201 -229 541 -609 685 -765 14 -15 63
-69 110 -121 47 -51 114 -125 150 -163 36 -39 98 -107 139 -151 41 -44 120
-127 175 -185 56 -58 117 -126 138 -150 20 -25 51 -61 70 -81 18 -20 60 -67
93 -104 33 -38 67 -76 76 -84 8 -9 71 -77 139 -151 68 -74 156 -169 196 -210
104 -108 205 -216 294 -316 104 -116 238 -290 295 -382 57 -93 64 -147 65
-497 1 -165 5 -358 10 -430 36 -566 35 -516 12 -534 l-21 -16 -4 -1000 c-5
-1142 -9 -1238 -68 -1539 -10 -54 -19 -100 -19 -102 0 -2 1118 -4 2486 -4
l2485 0 -6 2258 c-6 2668 -6 2303 0 3034 l6 598 -148 152 c-203 208 -286 292
-523 534 -113 115 -380 389 -595 609 -696 714 -1093 1120 -1410 1440 -564 568
-820 831 -888 912 -170 201 -459 475 -587 557 -61 40 -210 177 -210 194 0 47
-175 236 -760 823 -300 300 -576 571 -613 602 -90 75 -244 214 -278 252 -15
17 -69 80 -119 140 -91 108 -206 238 -285 319 -22 23 -157 167 -300 320 -143
154 -267 286 -275 295 -14 14 -25 6 -119 -94z"/>
<path d="M34009 32560 c-60 -21 -111 -59 -141 -107 -33 -54 -38 -162 -43 -936
-4 -578 -3 -665 11 -725 9 -37 16 -80 16 -97 -1 -16 -7 -244 -13 -505 -24
-917 -13 -4414 18 -5615 3 -114 0 -184 -8 -213 -9 -34 -9 -51 1 -83 19 -58 31
-64 120 -60 64 2 85 -1 120 -19 36 -18 52 -21 104 -15 33 4 108 6 166 6 58 0
663 -3 1344 -6 l1239 -6 -6 146 c-3 85 -10 152 -17 160 -8 9 -10 52 -6 132 2
65 10 539 16 1053 10 714 10 1157 1 1875 -7 517 -14 985 -17 1039 -5 84 -3
101 10 108 14 8 16 111 15 1031 -1 935 -11 1867 -25 2240 -4 90 -2 147 4 147
13 0 24 202 16 308 -9 125 -22 140 -130 153 -53 7 -106 7 -150 1 -45 -7 -258
-6 -599 1 -624 12 -1472 -2 -1585 -27 -36 -8 -97 -18 -137 -21 -62 -7 -75 -5
-100 12 -64 45 -136 53 -224 23z"/>
<path d="M9045 29389 c-121 -104 -231 -199 -245 -211 -55 -46 -155 -133 -160
-138 -3 -3 -32 -28 -65 -55 -33 -28 -78 -66 -100 -86 -22 -20 -103 -90 -180
-155 -77 -65 -142 -121 -145 -124 -3 -3 -84 -73 -180 -155 -96 -83 -180 -154
-186 -160 -6 -5 -37 -32 -69 -60 -32 -27 -63 -55 -69 -60 -6 -6 -42 -37 -81
-70 -101 -87 -120 -104 -221 -191 -50 -43 -153 -133 -229 -199 -76 -66 -143
-124 -149 -130 -6 -5 -43 -37 -81 -70 -84 -72 -91 -79 -271 -236 -181 -160
-236 -208 -429 -374 -158 -136 -285 -250 -394 -352 -31 -29 -83 -72 -115 -95
-193 -139 -421 -352 -494 -459 -41 -60 -54 -120 -42 -191 5 -35 5 -89 -2 -144
-11 -97 -24 -1500 -14 -1540 5 -19 13 -24 39 -24 18 0 37 4 43 8 15 13 75 31
159 47 71 13 482 15 3583 15 l3502 0 -4 648 c-2 356 -4 656 -4 667 0 11 2 252
4 536 l5 515 -98 95 c-54 52 -197 188 -318 303 -285 271 -390 372 -690 661
-23 22 -119 114 -215 205 -95 91 -194 185 -219 210 -58 57 -702 674 -835 800
-55 52 -184 176 -286 275 -102 99 -239 232 -304 295 -66 63 -137 132 -157 153
-21 20 -43 37 -51 37 -7 -1 -112 -86 -233 -191z"/>
<path d="M220 25121 c0 -1014 0 -1031 19 -1031 11 0 23 5 26 10 3 6 19 10 34
10 15 0 31 4 36 8 36 31 482 75 750 73 66 -1 756 -3 1533 -6 l1412 -6 0 987 0
987 -72 -8 c-40 -4 -91 -7 -113 -7 -22 0 -847 4 -1832 8 l-1793 7 0 -1032z"/>
<path d="M38190 25700 c-7 -5 -14 -47 -30 -185 -23 -204 -38 -508 -45 -920 -3
-176 -8 -341 -11 -367 l-6 -48 1948 0 1947 0 -6 268 c-3 165 -10 279 -17 299
-9 24 -9 41 -1 66 11 34 19 310 13 482 -2 50 0 159 4 243 l7 152 -1769 1
c-973 1 -1827 4 -1897 7 -71 4 -132 5 -137 2z"/>
<path d="M9340 21429 c-19 -10 -45 -18 -57 -19 -12 0 -38 -16 -58 -35 -29 -30
-35 -43 -35 -80 0 -69 24 -88 215 -168 61 -26 193 -67 214 -67 6 0 30 -9 54
-19 23 -11 71 -33 107 -49 64 -28 219 -131 279 -185 l32 -28 -5 -2252 c-5
-2460 -8 -2616 -65 -2840 -53 -207 -128 -265 -386 -297 -179 -22 -222 -33
-320 -83 -107 -54 -152 -146 -110 -227 18 -35 61 -46 220 -55 61 -4 128 -9
150 -11 247 -23 3310 -26 3800 -3 180 8 256 8 305 -1 37 -6 229 -14 441 -17
l376 -6 12 109 c20 180 22 204 32 319 69 794 86 1297 46 1388 -30 68 -138 90
-209 42 -55 -38 -156 -197 -284 -451 -146 -289 -183 -355 -273 -487 -134 -197
-287 -336 -446 -407 -75 -33 -87 -38 -130 -51 -22 -6 -51 -15 -65 -20 -14 -4
-70 -15 -125 -24 -55 -9 -136 -23 -180 -32 -65 -13 -185 -17 -635 -22 -305 -3
-560 -9 -566 -13 -6 -4 -52 13 -103 37 -50 25 -96 45 -101 45 -6 0 -18 4 -28
9 -18 9 -62 28 -99 42 -13 5 -33 13 -45 18 -13 5 -45 18 -73 28 -42 16 -54 27
-77 69 -59 106 -90 263 -110 549 -16 236 -16 1365 0 1655 19 330 30 362 134
390 67 19 501 19 688 1 311 -30 420 -55 515 -115 147 -94 326 -378 417 -661
20 -64 23 -71 61 -155 66 -147 177 -234 239 -187 36 28 40 109 45 952 4 777 0
1021 -26 1415 -11 159 -18 180 -67 180 -66 0 -141 -97 -193 -250 -13 -36 -34
-89 -47 -118 -13 -29 -24 -55 -24 -57 0 -6 -37 -92 -51 -117 -5 -10 -9 -22 -9
-28 0 -14 -113 -184 -140 -210 -3 -3 -34 -38 -70 -78 -122 -139 -221 -193
-380 -207 -36 -3 -291 -8 -568 -11 -388 -5 -506 -3 -517 6 -13 11 -15 171 -15
1240 l0 1228 36 36 36 36 940 0 941 0 180 -177 c268 -266 389 -426 544 -725
60 -117 90 -164 138 -213 56 -59 64 -63 117 -70 71 -9 107 3 134 43 30 44 50
294 38 475 -4 73 -8 167 -7 210 1 72 2 295 2 405 0 26 3 118 6 205 6 130 5
157 -6 157 -8 0 -61 2 -119 4 -421 17 -1206 31 -1745 31 -623 0 -931 -10
-1085 -36 -83 -14 -130 -14 -260 0 -288 31 -909 51 -1011 33 -39 -8 -58 -7
-68 1 -10 8 -81 13 -223 14 -115 0 -212 4 -215 7 -9 9 -25 6 -63 -15z"/>
<path d="M31408 21416 c-20 -6 -40 -14 -43 -18 -4 -4 -321 -5 -704 -2 -499 4
-734 2 -831 -6 -176 -16 -244 -16 -361 -2 -64 8 -221 11 -485 8 -374 -3 -391
-4 -439 -25 -66 -29 -85 -48 -85 -83 0 -43 14 -63 62 -90 45 -25 53 -27 246
-83 214 -62 369 -148 469 -259 53 -60 114 -174 132 -246 8 -29 13 -221 15
-540 3 -294 9 -523 15 -565 16 -102 31 -680 19 -735 -21 -99 -30 -427 -35
-1320 -5 -922 1 -1282 29 -1632 l12 -148 -25 -26 c-29 -32 -100 -87 -194 -152
-125 -86 -318 -142 -491 -142 -127 0 -225 -54 -239 -133 -4 -18 -1 -58 7 -87
16 -66 49 -92 140 -110 102 -20 524 -24 898 -9 367 15 537 15 604 -1 65 -15
700 -23 881 -10 88 6 623 15 1189 20 945 8 1031 8 1060 -7 25 -14 74 -17 269
-21 163 -3 242 -1 249 6 6 6 15 64 19 129 12 176 27 372 33 428 3 28 13 167
21 310 9 143 20 314 25 380 14 172 12 457 -4 532 -16 75 -27 90 -71 99 -107
20 -210 -96 -373 -416 -111 -218 -168 -324 -208 -388 -19 -29 -34 -54 -34 -57
0 -15 -162 -247 -229 -327 -124 -149 -223 -218 -366 -256 -118 -32 -282 -45
-765 -62 -402 -14 -498 -20 -602 -32 -64 -7 -102 -8 -110 -1 -15 11 -135 48
-188 58 -19 3 -46 10 -60 14 -14 5 -72 24 -130 42 -149 47 -238 95 -272 144
-83 121 -98 380 -98 1690 0 823 2 913 16 919 9 3 190 6 402 6 373 -1 618 -14
697 -38 72 -22 141 -68 218 -145 100 -99 114 -116 183 -222 95 -147 150 -260
214 -447 39 -113 91 -210 125 -231 11 -7 39 -19 63 -27 35 -11 49 -11 81 0 43
14 58 37 73 110 29 140 46 1118 29 1695 -17 613 -27 645 -191 645 -89 0 -130
-43 -164 -176 -40 -153 -99 -305 -178 -454 -68 -128 -100 -173 -177 -250 -69
-68 -80 -73 -211 -99 -58 -12 -157 -26 -280 -41 -99 -12 -193 -27 -260 -40
-30 -7 -68 -11 -85 -10 -16 0 -121 3 -233 6 -219 6 -245 11 -283 64 -38 52
-40 132 -36 1232 4 1029 10 1217 36 1267 24 44 122 59 466 72 474 19 1097 10
1162 -17 18 -7 60 -20 95 -29 140 -35 314 -143 454 -280 129 -127 199 -221
294 -396 34 -62 66 -118 70 -124 4 -5 27 -46 50 -89 53 -102 92 -158 145 -210
61 -59 127 -90 176 -83 46 6 64 19 87 61 15 28 17 96 19 691 1 445 -1 669 -8
687 -22 55 -49 63 -209 61 -80 -1 -161 -4 -180 -5 -91 -8 -1050 15 -1180 28
-170 16 -380 17 -432 0z"/>
<path d="M36230 21408 c-129 -4 -557 -9 -950 -11 -696 -4 -716 -5 -769 -25
-89 -35 -100 -66 -46 -129 40 -48 169 -117 290 -158 94 -31 251 -105 315 -149
58 -39 87 -64 182 -155 83 -80 120 -138 136 -216 28 -132 32 -166 32 -303 0
-81 8 -226 17 -322 19 -213 19 -131 0 -1075 -13 -622 -14 -900 -6 -1371 6
-397 6 -654 -1 -785 -5 -107 -10 -307 -10 -444 0 -222 -2 -256 -19 -303 -55
-150 -217 -363 -331 -437 -79 -50 -238 -127 -300 -144 -25 -7 -53 -17 -62 -22
-10 -5 -27 -9 -37 -9 -11 0 -23 -4 -26 -10 -3 -5 -13 -10 -22 -10 -21 0 -173
-74 -198 -97 -56 -50 -72 -121 -37 -161 37 -42 228 -56 951 -73 381 -9 605 -9
915 -1 446 13 559 22 651 54 139 48 140 109 2 196 -81 51 -301 162 -321 162
-3 0 -31 12 -63 26 -32 14 -67 30 -78 34 -143 57 -251 127 -342 224 -75 78
-118 152 -156 266 -54 162 -66 256 -78 605 -5 160 -13 313 -18 340 -6 30 -5
139 1 270 12 263 2 2554 -12 2690 -33 330 -43 689 -21 782 15 60 40 88 70 78
38 -12 105 -125 161 -275 17 -47 38 -103 47 -125 8 -22 28 -78 45 -125 29 -85
42 -119 59 -152 5 -10 9 -26 9 -36 0 -10 4 -22 9 -27 5 -6 21 -46 36 -90 27
-82 41 -117 56 -147 5 -10 9 -25 9 -33 0 -8 4 -23 9 -33 17 -33 52 -126 93
-247 10 -30 20 -55 37 -97 6 -13 31 -81 56 -153 26 -71 55 -152 65 -180 21
-57 84 -228 195 -530 42 -115 88 -239 102 -275 14 -36 38 -103 55 -150 16 -47
34 -96 40 -110 21 -48 53 -134 90 -240 16 -47 33 -95 38 -107 22 -50 30 -72
65 -168 20 -55 40 -109 45 -120 4 -11 13 -36 20 -55 7 -19 16 -44 20 -55 5
-11 29 -74 53 -140 75 -199 325 -858 347 -910 4 -11 15 -36 23 -55 8 -19 30
-73 47 -120 18 -47 36 -89 41 -95 5 -5 9 -15 9 -22 0 -7 10 -35 21 -61 41 -92
49 -110 49 -116 0 -6 14 -38 60 -141 10 -22 28 -62 40 -90 137 -307 223 -426
264 -362 8 12 46 103 85 202 40 99 76 190 81 203 6 12 14 32 19 45 4 12 13 33
19 47 6 14 40 104 77 200 37 96 73 189 81 207 8 17 14 34 14 38 0 7 75 204 95
250 7 17 23 57 35 90 12 33 26 70 31 83 12 29 20 50 62 157 89 230 342 866
363 913 13 29 24 55 24 57 0 3 16 39 35 81 19 41 35 77 35 80 0 2 9 24 20 49
11 25 28 64 39 88 10 23 67 164 126 312 59 149 115 288 125 310 10 22 72 182
140 355 118 305 130 335 149 383 5 12 24 60 41 107 18 47 39 101 47 120 8 19
18 44 23 55 11 29 26 65 44 107 9 21 23 56 31 78 8 22 22 57 31 78 23 52 38
87 69 162 31 75 39 94 94 213 23 49 41 91 41 94 0 3 30 65 66 138 64 131 93
173 112 161 17 -10 30 -160 43 -466 11 -287 10 -824 -7 -2410 -4 -385 -2 -656
5 -820 9 -183 9 -258 1 -295 -7 -32 -12 -199 -14 -455 -3 -453 0 -433 -78
-506 -70 -66 -177 -130 -292 -173 -105 -39 -283 -71 -398 -71 -37 0 -76 -4
-86 -9 -9 -5 -34 -17 -54 -25 -58 -26 -78 -58 -78 -130 0 -110 45 -146 200
-162 36 -3 76 -8 90 -11 14 -2 234 -9 490 -15 497 -11 1592 2 1844 22 134 11
170 22 219 68 62 59 18 149 -95 194 -82 33 -130 48 -153 48 -17 0 -64 13 -110
30 -11 5 -36 14 -55 20 -42 15 -183 81 -190 89 -3 3 -16 12 -30 20 -64 36
-251 186 -256 205 -3 12 -3 969 0 2127 4 1878 10 2424 30 2614 3 28 8 75 11
105 21 206 72 349 153 428 76 76 157 107 337 132 191 26 223 33 273 57 28 14
52 29 52 32 0 4 9 17 20 29 23 24 36 99 22 121 -34 49 -388 65 -1247 56 -330
-3 -611 -7 -625 -10 -14 -2 -64 -8 -112 -14 -136 -18 -149 -26 -173 -109 -10
-32 -21 -66 -25 -77 -4 -11 -13 -40 -20 -65 -7 -25 -16 -54 -20 -65 -4 -11
-16 -47 -25 -80 -17 -62 -34 -118 -84 -270 -16 -49 -45 -142 -65 -205 -20 -63
-41 -124 -46 -135 -5 -11 -16 -42 -25 -70 -37 -112 -226 -628 -265 -720 -5
-11 -27 -69 -50 -130 -23 -60 -49 -126 -57 -145 -8 -19 -19 -44 -23 -55 -4
-11 -15 -36 -23 -55 -8 -19 -32 -75 -52 -125 -20 -49 -44 -106 -52 -125 -26
-60 -31 -73 -53 -135 -12 -33 -28 -73 -35 -90 -7 -16 -39 -97 -70 -180 -55
-145 -64 -170 -84 -217 -6 -13 -29 -75 -52 -138 -23 -63 -57 -158 -76 -210
-68 -186 -125 -346 -149 -420 -13 -41 -29 -83 -34 -92 -6 -10 -10 -25 -10 -33
0 -8 -4 -23 -10 -33 -5 -9 -21 -53 -35 -97 -25 -79 -29 -90 -55 -150 -7 -16
-16 -39 -20 -50 -68 -179 -146 -342 -183 -382 -37 -41 -51 -30 -105 80 -28 56
-60 126 -72 156 -11 30 -29 73 -40 95 -34 76 -217 530 -305 756 -48 124 -93
239 -100 255 -8 17 -21 50 -30 75 -10 25 -23 59 -30 75 -6 17 -22 57 -35 90
-12 33 -27 71 -32 85 -17 41 -24 59 -73 190 -26 69 -51 134 -55 145 -5 11 -36
92 -69 180 -116 313 -234 623 -317 840 -153 396 -256 659 -271 695 -8 19 -19
45 -24 58 -5 12 -13 32 -18 45 -5 12 -24 58 -41 102 -18 44 -38 95 -46 113 -8
17 -20 47 -28 65 -97 229 -129 300 -183 407 -66 132 -105 185 -138 192 -11 3
-126 1 -255 -4z"/>
<path d="M15575 21398 c-208 -24 -279 -56 -241 -109 40 -58 143 -124 421 -269
230 -120 289 -168 330 -266 91 -219 127 -1108 129 -3194 1 -1261 -7 -1679 -36
-1805 -35 -158 -186 -302 -378 -360 -69 -21 -228 -44 -302 -45 -49 0 -60 -4
-86 -29 -24 -25 -30 -40 -35 -96 -8 -82 1 -154 21 -178 9 -9 41 -25 71 -35 50
-15 115 -17 596 -17 423 0 558 3 622 14 71 13 125 13 380 1 213 -9 695 -13
1688 -13 1504 0 1493 0 1549 52 25 24 25 19 46 331 8 131 24 326 50 620 28
321 35 446 35 645 0 238 -6 273 -51 294 -37 16 -69 14 -121 -11 -92 -43 -158
-129 -222 -288 -69 -171 -192 -394 -349 -635 -190 -290 -322 -426 -488 -500
-33 -15 -67 -31 -76 -36 -10 -5 -26 -9 -36 -9 -10 0 -22 -4 -27 -8 -6 -5 -30
-14 -55 -22 -63 -18 -146 -48 -194 -69 -37 -17 -54 -18 -166 -10 -69 5 -323
13 -565 18 -242 6 -451 13 -465 16 -125 32 -277 99 -347 151 -35 26 -90 130
-105 196 -33 149 -48 801 -48 2123 0 1647 25 2732 67 2880 42 149 167 237 553
385 267 103 307 120 330 145 19 21 19 22 3 37 -50 44 -260 72 -663 89 -308 13
-1735 19 -1835 7z"/>
<path d="M1299 21395 c-3 -2 -162 -5 -355 -6 -347 -1 -440 -7 -522 -36 -42
-15 -47 -23 -43 -73 5 -56 76 -98 226 -135 288 -71 487 -187 629 -367 210
-266 240 -491 218 -1609 -15 -745 -15 -1171 -1 -1759 14 -555 3 -830 -48
-1210 -8 -63 -19 -133 -25 -155 -51 -206 -100 -320 -182 -419 -96 -117 -238
-190 -511 -267 -22 -7 -56 -16 -75 -22 -149 -42 -222 -98 -233 -179 -21 -156
19 -163 908 -155 587 5 738 8 1140 22 263 9 409 29 462 63 47 30 37 140 -17
185 -25 22 -86 54 -165 88 -20 8 -94 30 -170 51 -51 14 -154 47 -180 58 -11 5
-42 16 -69 26 -68 25 -155 83 -198 133 -33 39 -76 115 -93 166 -23 68 -52 351
-75 720 -5 88 -12 203 -15 255 -16 248 -27 651 -31 1130 -3 442 -7 540 -21
620 -16 85 -18 185 -18 975 0 1209 7 1291 102 1211 22 -18 33 -40 42 -83 13
-61 28 -114 42 -148 4 -11 26 -75 48 -142 40 -121 64 -189 81 -228 5 -11 32
-82 60 -157 50 -135 103 -274 120 -313 5 -11 29 -76 55 -145 26 -69 50 -134
55 -145 4 -11 18 -47 30 -80 12 -33 28 -76 35 -95 7 -19 28 -73 45 -120 18
-47 36 -94 40 -105 7 -18 24 -62 102 -275 11 -30 24 -64 28 -75 5 -11 25 -65
45 -120 20 -55 40 -109 45 -120 4 -11 17 -45 28 -75 12 -30 50 -134 85 -230
36 -96 97 -263 137 -370 39 -107 75 -204 80 -215 4 -11 25 -65 45 -120 20 -55
40 -109 45 -120 5 -11 25 -65 45 -120 42 -116 73 -202 85 -230 5 -11 25 -65
45 -120 20 -55 40 -109 45 -120 4 -11 18 -47 30 -80 12 -33 26 -69 30 -80 5
-11 54 -139 110 -285 281 -728 407 -1026 449 -1065 33 -29 74 -29 109 0 31 26
39 39 92 145 53 107 147 339 295 725 31 83 61 160 66 173 5 12 14 33 19 47 6
14 14 35 19 48 5 12 22 56 37 97 15 41 36 95 46 120 30 68 34 78 68 170 18 47
39 101 47 120 8 19 18 44 23 55 4 11 12 31 18 45 5 14 36 90 67 170 32 80 61
154 66 165 4 11 85 214 179 450 94 237 175 440 180 453 6 12 14 32 19 45 5 12
16 38 25 58 8 20 31 78 51 129 20 51 43 109 51 129 9 20 20 46 25 59 5 12 13
32 18 45 5 12 15 38 21 57 7 19 20 51 28 70 8 19 18 44 22 55 4 11 15 36 23
55 9 19 36 88 61 153 25 66 52 133 60 150 8 18 37 93 66 167 28 74 58 149 65
165 7 17 45 116 85 220 39 105 75 199 80 210 23 55 60 158 79 220 12 39 25 79
30 90 9 22 26 63 40 98 38 90 88 183 123 222 43 49 95 82 108 68 28 -30 32
-287 29 -1878 -2 -891 -2 -1739 0 -1885 1 -152 -2 -284 -7 -310 -10 -42 -23
-433 -26 -748 l-1 -134 -45 -39 c-25 -21 -83 -57 -130 -80 -123 -60 -151 -70
-260 -94 -41 -9 -89 -21 -106 -26 -17 -5 -45 -9 -62 -9 -46 0 -183 -32 -244
-57 -56 -23 -80 -55 -86 -112 -11 -116 19 -134 255 -156 125 -12 352 -15 1098
-15 1139 0 1305 9 1363 75 26 30 29 79 8 129 -15 37 -82 96 -108 96 -9 0 -19
4 -22 9 -3 5 -20 11 -38 14 -111 19 -197 43 -283 77 -123 49 -339 176 -372
218 -27 33 -11 4356 17 4762 13 187 28 326 43 399 23 111 77 154 302 241 27
11 86 26 175 46 195 43 320 121 320 198 0 43 -20 63 -68 72 -20 3 -53 10 -72
16 -43 12 -1565 19 -1720 7 -216 -16 -243 -31 -254 -149 -7 -83 -32 -192 -83
-365 -38 -131 -101 -327 -126 -390 -8 -22 -30 -78 -47 -125 -18 -47 -38 -100
-46 -117 -8 -18 -20 -48 -28 -65 -8 -18 -23 -53 -34 -78 -11 -25 -30 -70 -42
-100 -12 -30 -28 -68 -35 -85 -11 -24 -63 -154 -105 -260 -4 -11 -15 -36 -23
-55 -36 -83 -320 -815 -474 -1225 -25 -66 -49 -129 -53 -140 -4 -11 -13 -36
-20 -55 -7 -19 -16 -44 -20 -55 -18 -42 -71 -187 -86 -232 -8 -27 -19 -58 -25
-70 -5 -13 -13 -33 -18 -45 -6 -13 -26 -70 -46 -128 -20 -58 -40 -114 -45
-125 -5 -11 -43 -121 -84 -245 -76 -231 -153 -424 -200 -505 -39 -65 -85 -115
-108 -115 -54 0 -108 60 -108 122 0 21 -60 227 -80 273 -4 11 -13 36 -20 55
-7 19 -17 46 -22 60 -19 46 -26 64 -48 125 -12 33 -28 76 -37 95 -8 19 -19 44
-23 55 -4 11 -15 36 -23 55 -8 19 -63 159 -122 310 -59 151 -110 284 -115 295
-5 11 -25 63 -45 115 -20 52 -41 104 -45 115 -5 11 -45 117 -90 235 -102 269
-189 498 -201 528 -21 53 -30 73 -38 95 -5 12 -26 67 -46 122 -20 55 -41 110
-46 123 -5 12 -13 32 -18 45 -4 12 -13 33 -19 47 -6 14 -27 70 -47 125 -20 55
-41 110 -46 123 -5 12 -13 32 -18 45 -5 12 -30 78 -56 147 -26 69 -50 134 -55
145 -8 20 -62 160 -175 460 -32 83 -67 177 -80 210 -13 33 -49 128 -80 210
-31 83 -62 161 -67 175 -13 31 -22 54 -41 105 -8 22 -23 59 -33 83 l-19 42
-636 0 c-349 0 -638 -2 -640 -5z"/>
<path d="M21200 21393 c-134 -8 -250 -58 -250 -107 0 -44 110 -118 245 -165
169 -58 386 -200 490 -320 17 -20 51 -59 78 -88 l47 -53 0 -1580 c0 -1620 -11
-2785 -30 -3015 -13 -172 -37 -352 -52 -395 -24 -73 -59 -138 -92 -172 -54
-55 -116 -79 -311 -118 -257 -51 -334 -103 -350 -241 -14 -115 6 -128 229
-141 220 -14 782 -3 861 17 80 19 204 19 273 -1 50 -15 98 -16 392 -10 184 3
362 8 395 11 33 2 105 7 160 10 173 10 263 33 285 74 15 29 12 128 -5 161 -9
17 -32 38 -53 48 -35 17 -67 26 -209 53 -32 6 -69 15 -83 19 -14 5 -41 12 -60
16 -104 20 -207 63 -255 105 -96 85 -128 213 -147 589 -10 209 -9 356 7 956
10 390 20 807 22 926 3 194 6 219 21 227 14 8 654 21 1047 22 327 1 1627 -22
1705 -30 120 -12 161 -24 194 -58 l26 -26 -4 -1136 c-4 -1255 -5 -1274 -69
-1383 -60 -103 -287 -209 -532 -249 -38 -6 -78 -15 -87 -20 -10 -5 -24 -9 -31
-9 -21 0 -76 -63 -88 -101 -9 -29 -15 -64 -31 -194 -3 -19 7 -19 637 -17 352
2 669 5 705 7 36 3 180 7 320 10 657 13 853 29 943 78 38 21 41 30 38 101 -3
70 -40 95 -221 146 -25 7 -54 16 -65 20 -11 5 -49 19 -85 31 -70 23 -107 39
-245 104 -49 23 -111 52 -136 63 -25 12 -50 27 -56 34 -7 9 -14 368 -22 1098
-6 597 -16 1194 -23 1327 -9 184 -9 268 0 355 18 173 35 1321 23 1588 -5 124
-7 228 -5 232 3 4 9 104 14 221 5 118 16 242 24 275 20 88 64 170 121 228 89
90 162 126 426 214 81 27 165 58 187 69 62 32 103 71 100 95 -4 29 -74 62
-178 83 -77 15 -189 17 -1230 17 l-1145 1 -56 -28 c-40 -19 -59 -35 -63 -52
-18 -72 65 -138 262 -206 112 -39 142 -52 142 -61 0 -5 7 -8 16 -8 8 0 51 -23
94 -51 234 -150 293 -337 342 -1084 16 -240 15 -370 -1 -490 -7 -49 -16 -220
-21 -380 -9 -294 -15 -372 -31 -389 -5 -6 -9 -18 -9 -28 0 -9 -17 -35 -37 -56
-54 -56 -124 -76 -234 -67 -146 11 -321 9 -394 -5 -100 -19 -863 -20 -920 -1
-71 23 -445 40 -892 40 -265 1 -434 5 -438 11 -3 5 -10 67 -16 137 -5 70 -14
180 -19 243 -31 394 -31 411 -20 673 6 144 15 390 20 547 4 157 12 378 16 491
l7 205 87 92 c58 61 94 92 109 92 11 0 29 4 39 9 38 20 314 103 370 111 108
15 189 75 199 146 6 49 -14 69 -88 90 -71 20 -618 30 -804 15 -71 -5 -218 -9
-325 -8 -107 1 -286 1 -397 -1 -131 -2 -204 1 -208 8 -6 9 -451 12 -595 3z"/>
<path d="M17400 13486 c-140 -52 -274 -143 -565 -383 -264 -218 -661 -587
-930 -863 -206 -212 -256 -292 -210 -330 22 -18 115 -4 200 31 11 4 59 22 107
38 91 31 274 105 365 147 30 13 55 24 57 24 14 0 624 299 701 343 22 13 78 44
125 69 456 241 686 434 682 570 -1 43 -41 114 -89 159 -65 61 -213 170 -258
190 -47 22 -134 24 -185 5z"/>
<path d="M16405 11579 c-71 -10 -143 -18 -160 -18 -34 1 -161 -16 -245 -32
-30 -6 -76 -12 -103 -14 -26 -1 -53 -7 -60 -13 -6 -5 -60 -26 -119 -46 -117
-39 -182 -67 -241 -103 -21 -13 -77 -41 -126 -62 -48 -22 -130 -63 -182 -91
-90 -50 -323 -199 -364 -233 -11 -8 -56 -44 -100 -78 -187 -145 -441 -391
-555 -536 -8 -10 -31 -39 -51 -63 -258 -325 -444 -735 -534 -1178 -43 -208
-54 -293 -77 -572 -34 -424 8 -921 108 -1289 9 -31 19 -69 24 -86 27 -103 107
-324 157 -435 221 -493 550 -911 964 -1221 149 -112 335 -227 490 -302 34 -16
60 -37 67 -52 10 -22 14 -24 30 -14 19 12 46 3 227 -71 61 -26 258 -84 350
-104 101 -23 125 -28 170 -36 123 -23 239 -34 355 -35 219 0 624 15 660 25 19
6 70 10 112 10 109 0 245 21 438 67 121 29 227 60 252 74 10 5 25 9 33 9 8 0
23 4 33 9 9 6 44 20 77 31 72 26 97 37 240 106 474 229 968 705 1299 1252 31
51 56 94 56 96 0 2 20 39 44 83 53 92 140 290 185 418 73 205 123 432 153 695
26 231 13 796 -23 990 -39 210 -44 234 -81 380 -109 427 -289 822 -541 1183
-63 91 -84 118 -112 151 -5 6 -28 34 -50 61 -90 114 -251 274 -385 383 -36 29
-74 61 -85 70 -58 48 -294 190 -404 243 -69 34 -151 75 -183 90 -48 25 -291
107 -413 141 -88 24 -111 31 -127 39 -10 5 -29 9 -42 9 -14 0 -28 5 -31 10 -3
6 -18 10 -32 10 -15 0 -40 4 -57 10 -17 5 -78 21 -136 34 -102 24 -118 25
-440 24 -267 0 -361 -4 -465 -19z m280 -359 c33 -5 107 -12 165 -16 96 -6 152
-17 370 -76 65 -17 199 -49 320 -77 159 -37 338 -156 540 -360 184 -185 309
-365 433 -624 56 -117 73 -154 108 -244 5 -13 13 -33 19 -45 31 -75 114 -356
135 -463 3 -16 10 -46 15 -65 22 -90 54 -286 69 -430 6 -52 15 -140 21 -195
13 -130 13 -681 0 -810 -26 -236 -57 -457 -81 -555 -5 -25 -14 -63 -19 -85
-29 -132 -91 -342 -121 -412 -5 -13 -13 -33 -18 -45 -148 -378 -311 -643 -541
-882 -151 -156 -302 -276 -450 -358 -25 -14 -61 -34 -80 -45 -46 -25 -180 -80
-255 -105 -192 -63 -284 -76 -580 -82 -233 -5 -270 -3 -360 15 -94 19 -143 32
-190 49 -11 5 -36 13 -55 20 -140 49 -385 182 -489 266 -9 7 -52 40 -95 75
-243 191 -448 446 -599 746 -69 138 -154 355 -187 478 -28 103 -49 188 -59
240 -7 33 -16 78 -21 100 -8 38 -17 94 -39 250 -26 185 -33 353 -28 720 7 464
20 636 76 985 23 143 35 204 61 303 6 20 15 56 21 80 6 23 15 51 19 62 4 11
17 52 29 90 37 117 71 200 141 340 133 263 332 517 595 757 119 109 141 123
260 182 72 35 166 76 210 91 44 15 88 31 97 36 10 5 29 9 42 9 14 0 28 5 31
10 3 6 17 10 30 10 13 0 34 4 47 9 13 5 50 15 83 21 33 7 89 20 125 30 64 18
85 18 205 0z"/>
<path d="M40155 11590 c-33 -5 -114 -14 -180 -20 -128 -13 -196 -22 -285 -40
-30 -6 -72 -14 -93 -17 -20 -3 -40 -9 -43 -14 -3 -5 -14 -9 -26 -9 -42 0 -298
-94 -428 -157 -152 -74 -238 -127 -355 -218 -151 -119 -281 -260 -383 -419
-87 -135 -176 -350 -207 -500 -9 -39 -21 -96 -28 -126 -8 -36 -12 -143 -12
-310 1 -227 3 -266 24 -358 45 -204 108 -355 211 -501 57 -81 205 -235 285
-297 28 -21 52 -42 55 -45 9 -11 184 -126 265 -174 87 -52 362 -194 465 -239
36 -16 101 -45 145 -63 44 -19 96 -41 115 -50 19 -8 44 -18 55 -23 37 -14 73
-29 155 -63 19 -8 62 -24 95 -37 80 -29 96 -35 125 -48 14 -6 81 -31 150 -57
69 -26 139 -53 157 -61 17 -8 84 -34 149 -59 64 -26 142 -57 171 -70 29 -14
56 -25 59 -25 3 0 69 -31 147 -69 171 -83 276 -152 354 -229 157 -155 314
-467 362 -717 27 -141 21 -340 -12 -430 -9 -22 -25 -69 -37 -105 -13 -36 -30
-83 -39 -105 -50 -123 -212 -308 -354 -403 -122 -83 -298 -168 -407 -197 -14
-3 -41 -11 -60 -16 -110 -32 -207 -46 -405 -60 l-170 -12 -125 33 c-69 17
-141 35 -160 40 -99 23 -199 53 -230 69 -212 110 -582 374 -735 525 -111 110
-228 282 -399 587 -53 97 -164 318 -203 409 -51 116 -70 171 -79 230 -4 26
-17 54 -31 68 -22 22 -31 24 -101 20 -95 -5 -131 -21 -157 -73 -19 -38 -20
-57 -18 -455 2 -383 13 -737 30 -1035 4 -66 6 -131 5 -145 -11 -132 -12 -340
-2 -401 18 -103 31 -113 137 -106 83 6 173 36 173 58 0 5 5 9 11 9 21 0 90 65
142 132 65 87 104 113 154 103 20 -3 99 -37 177 -75 175 -85 211 -100 311
-134 44 -15 89 -31 100 -36 25 -11 159 -54 240 -76 325 -89 889 -99 1401 -25
85 12 269 49 304 60 14 5 45 14 70 21 25 7 54 16 65 20 11 5 40 17 65 26 58
23 214 104 288 147 31 19 77 46 102 60 82 45 318 263 431 397 127 149 213 290
313 512 58 129 107 337 125 533 20 209 -27 518 -105 693 -52 117 -90 192 -115
229 -16 23 -29 46 -29 51 0 6 -4 12 -8 14 -4 2 -19 19 -32 38 -106 154 -300
336 -480 450 -89 57 -109 67 -270 146 -209 102 -239 115 -395 179 -49 20 -106
44 -125 52 -58 25 -72 30 -160 63 -47 18 -101 39 -120 47 -34 15 -55 23 -102
42 -131 51 -181 72 -285 117 -17 8 -33 14 -36 14 -13 0 -474 209 -622 281
-257 126 -303 156 -441 293 -159 158 -240 302 -295 526 -9 35 -14 110 -13 210
1 137 4 167 28 255 51 184 113 307 221 434 40 47 164 139 241 178 86 44 168
74 254 93 30 7 71 17 90 22 19 4 146 13 282 19 243 11 249 11 293 -10 25 -11
54 -21 64 -21 11 0 22 -4 25 -9 3 -5 20 -11 38 -14 34 -6 65 -12 208 -44 73
-16 100 -28 190 -88 145 -95 230 -164 334 -270 182 -184 363 -460 460 -700 16
-38 33 -81 39 -95 22 -56 26 -67 45 -125 11 -33 32 -98 46 -145 29 -92 36
-110 73 -185 49 -98 88 -119 215 -117 111 1 126 13 153 115 40 155 56 1282 23
1622 -5 61 -11 137 -12 170 -3 135 -105 204 -237 160 -44 -14 -130 -63 -149
-84 -3 -3 -39 -36 -80 -72 -84 -74 -142 -109 -181 -109 -28 0 -100 35 -229
110 -87 50 -234 120 -253 120 -7 0 -17 4 -22 8 -6 5 -64 26 -130 47 -66 21
-158 50 -205 65 -110 35 -159 48 -245 61 -92 15 -294 19 -370 9z"/>
<path d="M32745 11453 c-75 -16 -140 -17 -332 -8 -125 6 -169 5 -245 -9 -109
-21 -432 -19 -608 3 -101 13 -263 12 -690 -5 -161 -6 -897 -9 -1310 -5 -162 2
-535 0 -829 -4 -458 -5 -547 -4 -624 10 -184 31 -477 10 -565 -41 -97 -57 -77
-160 39 -198 28 -9 85 -35 127 -57 42 -22 106 -47 142 -55 102 -24 178 -50
290 -102 213 -98 265 -213 310 -687 5 -61 10 -221 10 -356 0 -153 5 -288 14
-359 20 -156 23 -590 7 -820 -10 -135 -14 -558 -17 -1575 -5 -1550 1 -1441
-75 -1554 -44 -66 -109 -113 -214 -155 -38 -15 -78 -32 -87 -37 -10 -5 -27 -9
-37 -9 -11 0 -23 -4 -26 -10 -3 -6 -17 -10 -31 -10 -13 0 -32 -4 -42 -9 -9 -5
-44 -15 -77 -21 -215 -42 -258 -59 -335 -128 -42 -39 -52 -54 -57 -89 -10 -79
28 -104 200 -132 121 -20 1632 -33 2988 -26 1281 7 2358 20 2436 31 25 4 44
12 48 22 20 50 60 555 80 1007 23 521 27 706 17 783 -5 46 -13 86 -16 89 -10
10 -108 -26 -158 -58 -97 -62 -219 -219 -294 -378 -67 -142 -144 -296 -170
-341 -114 -198 -256 -377 -385 -488 -213 -183 -276 -210 -569 -245 -147 -17
-1528 -17 -1655 0 -186 25 -242 48 -326 133 -51 52 -114 157 -133 220 -59 199
-74 308 -87 625 -8 199 -8 428 1 870 15 773 18 847 30 859 6 6 67 12 143 14
73 1 301 9 508 17 490 19 635 20 646 1 4 -8 55 -63 113 -123 199 -205 280
-313 368 -496 28 -56 60 -142 72 -192 42 -170 114 -275 207 -303 52 -16 112 5
132 44 36 73 54 468 53 1174 0 736 -15 1060 -58 1277 -10 50 -66 68 -122 39
-30 -16 -98 -84 -130 -132 -39 -57 -109 -207 -157 -338 -71 -195 -111 -262
-213 -362 -58 -57 -215 -144 -259 -144 -12 0 -24 -4 -27 -9 -3 -5 -20 -11 -38
-14 -18 -2 -71 -11 -118 -20 -47 -9 -152 -20 -235 -26 -197 -15 -878 -32 -887
-23 -19 20 -32 2107 -14 2292 10 101 36 188 61 204 19 12 53 20 185 45 161 31
1275 48 1525 23 223 -22 286 -39 375 -101 177 -123 540 -548 700 -818 35 -59
80 -124 100 -144 77 -74 197 -103 253 -59 49 39 57 90 67 410 10 314 24 552
40 690 12 102 33 401 28 404 -2 1 -30 -4 -63 -11z"/>
<path d="M432 11439 c-43 -13 -56 -46 -48 -127 8 -80 32 -130 74 -158 53 -36
171 -66 327 -84 259 -30 325 -50 395 -120 97 -98 144 -306 165 -735 3 -55 7
-145 10 -200 3 -55 10 -332 16 -615 59 -3070 54 -3422 -52 -3707 -71 -189
-167 -250 -504 -318 -44 -9 -93 -21 -110 -25 -228 -69 -325 -132 -325 -213 0
-34 6 -46 39 -77 43 -41 50 -43 234 -61 149 -14 1421 -7 1717 11 130 7 251 8
331 3 392 -25 779 58 779 168 0 60 -71 118 -172 141 -21 4 -55 12 -75 17 -91
22 -260 51 -296 51 -61 0 -182 33 -247 68 -78 42 -128 106 -170 217 -44 117
-68 310 -82 675 -17 424 -18 3100 -1 3740 16 581 31 745 79 817 14 23 165 103
193 103 6 0 19 4 29 9 29 15 66 29 92 36 14 3 50 13 80 21 73 21 197 54 240
64 58 13 155 47 199 69 59 30 75 60 67 122 -15 110 -40 128 -159 111 -62 -9
-123 -9 -248 -1 -134 9 -1385 7 -2174 -3 -38 0 -137 2 -220 6 -91 3 -163 2
-183 -5z"/>
<path d="M4158 11444 c-43 -14 -32 -108 20 -160 71 -71 206 -145 382 -208 85
-31 96 -36 162 -65 26 -12 52 -21 58 -21 20 0 285 -263 301 -299 27 -62 56
-203 79 -391 21 -172 32 -782 26 -1365 -4 -319 -12 -1122 -17 -1785 -6 -663
-14 -1244 -17 -1291 l-7 -87 -126 -99 c-281 -221 -477 -307 -754 -329 -62 -5
-76 -11 -122 -46 -76 -58 -91 -98 -77 -202 7 -50 34 -85 87 -111 33 -16 137
-21 153 -6 5 5 292 11 644 14 658 5 1257 19 1608 37 173 10 208 14 241 32 21
11 44 32 50 45 15 34 14 89 -4 123 -31 60 -176 132 -385 190 -25 7 -56 16 -70
20 -14 4 -45 13 -70 20 -292 80 -388 145 -472 320 -157 323 -177 433 -197
1035 -27 849 -19 3717 10 3828 15 55 46 67 104 39 57 -27 103 -94 117 -170 23
-127 168 -547 289 -837 4 -11 44 -112 89 -225 44 -113 86 -216 92 -230 11 -26
26 -61 38 -95 5 -11 15 -36 23 -55 8 -19 29 -73 47 -120 17 -47 38 -98 45
-115 14 -30 388 -984 582 -1480 58 -148 111 -283 118 -300 7 -16 32 -79 55
-140 23 -60 46 -121 52 -135 6 -14 14 -34 18 -45 5 -11 15 -36 23 -55 8 -19
24 -62 37 -95 12 -33 27 -71 32 -85 17 -39 19 -45 173 -445 80 -209 150 -389
155 -400 5 -11 23 -56 40 -100 47 -121 148 -319 187 -365 43 -49 80 -70 128
-70 89 0 136 53 182 202 22 73 120 336 159 426 8 17 20 47 28 65 8 17 31 73
51 122 40 99 56 135 90 210 13 28 35 79 50 115 15 36 36 84 46 108 10 23 28
61 38 85 10 23 31 71 46 107 15 36 35 83 45 105 10 22 39 92 65 155 26 63 57
138 70 165 12 28 26 61 30 75 4 14 22 50 40 80 29 48 82 157 105 215 15 37 53
129 74 175 6 14 22 45 36 70 14 25 32 65 39 89 13 45 34 95 102 238 22 44 39
84 39 87 0 6 33 79 112 246 22 47 48 108 58 135 42 118 161 395 194 449 20 33
36 71 36 85 0 25 22 92 57 171 17 40 16 37 78 195 26 66 56 139 66 162 11 24
19 49 19 56 0 7 4 17 9 23 4 5 21 43 35 84 29 78 36 97 55 143 31 76 45 112
76 197 30 83 37 104 53 140 6 14 18 45 26 70 54 166 75 210 117 253 24 24 64
76 89 115 70 112 85 97 99 -94 19 -270 21 -3859 3 -4169 -32 -526 -99 -706
-302 -817 -52 -28 -116 -50 -250 -85 -163 -43 -172 -44 -300 -49 -192 -7 -210
-23 -210 -186 0 -72 4 -105 15 -122 24 -36 67 -50 128 -41 28 4 477 10 997 12
1351 7 1385 7 1488 21 50 6 133 17 184 22 84 10 96 14 149 53 51 37 58 46 58
78 2 69 -102 140 -305 208 -47 16 -88 32 -91 35 -4 3 -15 6 -25 6 -10 0 -26 4
-36 9 -9 5 -28 13 -42 18 -54 21 -199 96 -226 116 -65 51 -117 104 -140 143
-40 68 -52 178 -76 699 -18 385 -18 2704 0 3230 29 871 52 1192 89 1282 14 35
46 60 114 91 111 50 202 82 384 133 17 5 57 18 91 29 33 11 71 20 85 20 76 0
143 42 164 103 16 47 1 71 -62 98 -34 15 -68 19 -148 19 -57 0 -106 4 -109 8
-3 5 -45 15 -93 23 -71 11 -245 14 -883 14 -897 0 -816 7 -907 -83 -57 -56
-94 -144 -154 -367 -6 -22 -20 -60 -32 -85 -31 -67 -47 -112 -47 -137 0 -12
-4 -25 -10 -28 -5 -3 -10 -14 -10 -24 0 -10 -9 -40 -19 -67 -11 -27 -33 -85
-49 -129 -17 -44 -46 -116 -65 -160 -19 -44 -62 -145 -96 -225 -79 -187 -75
-176 -105 -243 -14 -32 -26 -60 -26 -62 0 -3 -9 -27 -21 -53 -12 -26 -24 -56
-29 -67 -4 -11 -17 -40 -29 -63 -11 -24 -21 -49 -21 -54 0 -6 -25 -63 -56
-127 -69 -143 -67 -139 -100 -236 -14 -44 -35 -100 -46 -125 -30 -67 -43 -97
-78 -185 -18 -44 -38 -94 -45 -110 -8 -17 -48 -116 -90 -220 -41 -105 -79
-199 -84 -210 -5 -11 -16 -36 -25 -56 -8 -20 -31 -77 -50 -126 -19 -50 -43
-111 -54 -134 -11 -24 -61 -145 -112 -269 -50 -124 -99 -241 -107 -260 -8 -19
-18 -44 -23 -55 -12 -31 -26 -66 -49 -117 -12 -26 -21 -51 -21 -54 0 -7 -26
-69 -41 -96 -5 -10 -9 -29 -9 -43 0 -27 -13 -58 -96 -230 -103 -216 -131 -241
-181 -162 -50 79 -212 425 -333 712 -4 11 -15 36 -23 55 -9 19 -25 60 -36 90
-12 30 -26 65 -31 78 -6 12 -14 32 -19 45 -5 12 -18 42 -29 67 -10 25 -36 90
-57 145 -21 55 -42 104 -46 110 -5 5 -9 19 -9 32 0 13 -4 23 -10 23 -5 0 -10
6 -10 13 0 11 -65 183 -97 257 -8 19 -19 44 -24 55 -4 11 -72 180 -149 375
-78 195 -148 369 -155 385 -8 17 -24 55 -35 85 -12 30 -27 69 -35 85 -7 17
-34 84 -60 150 -61 156 -66 168 -141 343 -9 20 -45 96 -79 167 -52 109 -172
403 -282 695 -13 36 -30 79 -38 95 -7 17 -25 60 -39 98 -30 79 -41 104 -114
257 -30 63 -57 117 -61 120 -17 14 -71 100 -71 115 0 15 -64 16 -857 12 -591
-3 -873 -8 -907 -16 -34 -8 -60 -8 -85 -1 -39 11 -365 22 -393 14z"/>
<path d="M20351 11440 c-54 -13 -66 -32 -64 -105 2 -87 17 -127 63 -169 49
-44 86 -60 202 -85 104 -22 200 -52 256 -78 125 -58 256 -201 373 -406 78
-138 249 -501 359 -762 4 -11 15 -36 23 -55 8 -19 32 -75 52 -125 20 -49 44
-106 52 -125 8 -19 19 -44 23 -55 4 -11 15 -36 23 -55 9 -19 25 -60 36 -90 12
-30 25 -64 30 -75 5 -11 13 -31 19 -45 5 -14 17 -42 26 -62 9 -21 28 -68 42
-105 14 -38 32 -84 41 -103 8 -19 19 -45 24 -57 25 -62 30 -75 39 -95 5 -13
89 -223 186 -468 96 -245 183 -461 191 -480 8 -19 20 -46 25 -60 6 -14 14 -34
19 -45 5 -11 18 -45 30 -75 11 -30 27 -70 35 -87 29 -68 43 -101 79 -188 33
-81 47 -115 76 -180 103 -236 203 -479 218 -530 7 -22 16 -49 21 -60 10 -24
42 -132 71 -240 22 -81 41 -128 64 -155 7 -8 20 -35 28 -60 9 -25 32 -90 53
-145 20 -55 39 -110 41 -123 3 -12 9 -25 14 -28 5 -3 9 -12 9 -19 0 -8 11 -38
24 -67 13 -29 38 -89 56 -133 43 -108 46 -115 63 -155 9 -19 43 -107 77 -195
73 -189 85 -214 123 -255 49 -52 96 -70 187 -70 107 0 153 28 231 142 41 59
201 369 278 538 24 52 63 136 86 185 82 175 184 412 216 506 18 52 37 101 44
109 18 24 35 69 35 95 0 13 5 27 10 30 6 3 10 15 10 26 0 10 4 27 9 37 6 9 20
44 31 77 21 58 32 84 70 170 10 22 26 58 35 80 10 22 31 67 46 99 16 33 29 65
29 73 0 7 5 13 10 13 6 0 10 8 10 18 0 10 4 22 8 28 5 5 15 25 22 44 15 39 33
84 54 133 8 17 22 52 30 78 9 25 52 121 97 215 45 93 101 212 124 264 24 52
54 120 68 150 13 30 46 105 72 165 26 61 58 135 72 165 14 30 29 64 34 75 4
11 18 43 30 70 11 28 27 65 35 83 8 17 20 47 28 65 8 17 26 61 41 97 15 36 36
84 46 108 10 23 28 61 38 85 10 23 35 83 56 132 20 50 43 105 51 123 32 72 43
100 69 162 15 36 36 85 47 110 11 24 53 119 93 210 40 91 84 190 98 220 14 30
35 78 47 105 20 45 63 137 163 345 86 178 184 330 287 442 62 69 180 168 198
168 6 0 12 4 14 8 2 4 28 20 59 34 47 22 80 28 224 39 l168 13 18 31 c24 39
27 194 4 248 -30 72 51 67 -1064 67 -593 0 -1065 -5 -1153 -11 -110 -8 -163
-7 -205 1 -69 15 -73 11 -73 -90 0 -69 3 -79 29 -111 58 -70 215 -124 431
-149 85 -10 140 -23 208 -51 12 -5 32 -13 45 -18 180 -69 209 -89 248 -169 20
-40 23 -63 24 -157 0 -99 -12 -195 -35 -265 -4 -14 -13 -45 -20 -70 -7 -25
-21 -70 -30 -100 -10 -30 -26 -82 -36 -115 -9 -33 -21 -64 -26 -69 -4 -6 -8
-19 -8 -31 0 -12 -4 -25 -8 -31 -4 -5 -14 -27 -21 -49 -7 -22 -16 -49 -21 -60
-4 -11 -29 -78 -55 -150 -25 -71 -53 -144 -61 -162 -8 -17 -14 -34 -14 -37 0
-6 -219 -571 -245 -631 -7 -16 -34 -84 -60 -150 -25 -66 -51 -130 -56 -142 -5
-13 -13 -34 -19 -48 -5 -14 -14 -36 -20 -50 -5 -14 -14 -35 -20 -47 -5 -13
-23 -59 -41 -103 -17 -44 -37 -96 -46 -115 -16 -38 -15 -34 -68 -170 -20 -52
-46 -115 -57 -140 -11 -25 -24 -54 -28 -65 -116 -291 -161 -399 -204 -490 -48
-100 -107 -240 -167 -400 -12 -33 -37 -93 -56 -133 -18 -41 -33 -76 -33 -79 0
-13 -155 -311 -176 -340 -17 -22 -29 -30 -44 -26 -23 6 -86 73 -102 109 -6 13
-15 24 -20 24 -4 0 -8 5 -8 11 0 6 -8 23 -18 37 -10 15 -31 59 -46 97 -16 39
-35 86 -43 105 -25 58 -45 104 -53 125 -4 11 -15 36 -24 57 -9 20 -16 39 -16
42 0 3 -16 40 -35 82 -19 41 -46 117 -59 168 -19 75 -99 304 -135 391 -5 11
-30 74 -56 140 -25 66 -55 138 -65 160 -38 84 -49 112 -65 167 -9 31 -27 73
-41 93 -13 20 -24 38 -24 40 0 3 -13 34 -30 70 -16 36 -30 68 -30 71 0 3 -9
26 -21 52 -12 26 -28 63 -36 82 -9 19 -22 49 -29 67 -21 46 -263 642 -278 683
-8 19 -46 116 -85 215 -39 99 -80 205 -92 235 -33 86 -49 127 -67 170 -6 14
-27 70 -47 125 -36 97 -42 114 -66 173 -20 47 -27 65 -54 142 -28 80 -42 114
-56 142 -5 10 -9 27 -9 37 0 11 -4 23 -10 26 -5 3 -10 16 -10 29 0 12 -3 26
-7 30 -14 13 -43 142 -49 216 -5 56 -3 84 9 111 28 68 119 118 213 119 40 0
341 33 439 48 68 11 120 38 156 81 28 34 29 40 27 116 l-3 80 -35 17 c-63 31
-247 41 -585 33 -425 -11 -394 -10 -1280 -4 -434 4 -805 3 -824 -1z"/>
<path d="M34079 11441 c-160 -7 -169 -11 -169 -82 0 -45 4 -54 44 -93 52 -53
167 -110 331 -164 154 -52 223 -77 232 -85 3 -4 13 -7 22 -7 8 0 70 -27 137
-60 129 -64 194 -116 194 -155 0 -13 4 -34 9 -47 8 -20 21 -126 36 -303 48
-563 82 -2413 65 -3526 -14 -859 -29 -1168 -60 -1228 -4 -9 -15 -33 -24 -53
-22 -51 -112 -138 -172 -167 -27 -13 -57 -27 -66 -32 -10 -5 -25 -9 -33 -9 -8
0 -23 -4 -33 -9 -39 -21 -155 -44 -332 -66 -69 -9 -141 -20 -160 -25 -114 -29
-136 -38 -167 -66 -29 -27 -33 -38 -33 -81 0 -58 39 -144 73 -160 12 -6 49
-16 81 -22 81 -15 857 -15 1413 1 454 12 494 10 542 -26 19 -14 419 -12 506 3
39 6 131 23 205 37 74 13 154 24 178 24 128 0 166 131 68 238 -40 44 -84 60
-261 92 -33 5 -94 17 -135 25 -41 8 -87 15 -103 15 -15 0 -36 5 -47 10 -148
74 -192 104 -283 189 -62 58 -72 101 -98 416 -12 151 -27 4736 -15 4798 5 28
21 42 124 108 64 42 139 86 165 98 66 30 195 71 223 71 22 0 45 5 154 30 19 5
62 14 95 20 103 21 157 42 194 75 33 30 35 37 36 91 0 84 -10 112 -43 121 -28
8 -1406 11 -1912 4 -157 -2 -411 -1 -565 1 -154 3 -341 3 -416 -1z"/>
<path d="M220 2127 l0 -1597 524 0 525 0 3 22 3 23 2125 8 c1169 4 7541 9
14160 11 6619 2 13768 8 15885 12 2118 4 3893 7 3945 5 52 -1 219 -1 370 -1
479 3 1338 4 1840 1 267 -1 726 -1 1020 1 522 2 746 -3 882 -23 37 -5 150 -9
251 -9 167 0 186 2 192 18 32 80 41 487 44 1920 l2 1203 -1853 -6 c-2210 -7
-1814 -7 -3491 0 -1244 6 -1377 5 -1377 -9 0 -12 -11 -16 -45 -16 -33 0 -45 4
-45 15 0 13 -129 15 -1103 15 -785 0 -1106 -3 -1114 -11 -7 -7 -47 -9 -119 -5
-60 3 -1654 8 -3543 11 -2951 5 -3435 4 -3445 -9 -7 -9 -44 -16 -117 -20 -105
-6 -818 -6 -914 0 -307 21 -2035 26 -9312 30 -7053 4 -8023 3 -8023 -10 0 -8
-9 -17 -20 -21 -27 -9 -174 4 -243 21 -76 18 -555 19 -637 1 -42 -9 -311 -10
-1180 -4 -1253 8 -1411 9 -1820 5 -157 -2 -979 1 -1827 6 l-1543 9 0 -1596z
m1907 796 c53 -26 126 -74 170 -110 42 -35 92 -76 112 -91 95 -74 117 -115
104 -194 -8 -52 -61 -108 -102 -108 -51 0 -133 52 -231 147 -127 124 -175 148
-295 148 -107 0 -153 -18 -235 -92 -81 -72 -108 -149 -76 -212 29 -54 137
-117 276 -160 41 -12 113 -35 160 -49 223 -69 459 -226 534 -355 14 -23 32
-63 41 -89 14 -44 14 -52 0 -95 -27 -80 -100 -186 -184 -266 -141 -134 -282
-187 -505 -188 -177 0 -339 39 -466 114 -63 37 -175 143 -189 179 -5 14 -11
86 -12 162 -4 146 -1 155 46 156 32 0 122 -66 222 -163 102 -99 125 -117 198
-151 98 -45 126 -51 250 -50 138 1 181 15 292 97 75 56 97 94 90 154 -9 85
-114 163 -343 254 -78 30 -343 119 -357 119 -5 0 -38 14 -75 32 -83 39 -179
133 -214 209 -45 97 -50 113 -55 185 -5 65 -3 76 23 124 43 80 168 189 296
259 134 74 210 92 348 84 75 -4 95 -10 177 -50z m11102 14 c25 -22 31 -35 31
-70 0 -82 -12 -118 -50 -158 -61 -65 -122 -45 -146 47 -17 62 -17 90 -1 135
31 91 97 109 166 46z m-5059 20 c107 -29 362 -145 387 -177 67 -83 100 -274
72 -412 -39 -192 -96 -294 -210 -380 -19 -14 -74 -41 -124 -59 l-90 -33 -269
-6 c-225 -4 -270 -7 -276 -20 -5 -8 -13 -58 -19 -110 -26 -211 -42 -327 -52
-365 -6 -22 -15 -58 -21 -80 -20 -80 -46 -125 -72 -125 -38 0 -57 65 -77 259
-17 173 2 1466 23 1486 3 4 102 11 219 16 116 5 213 10 215 12 2 1 56 4 121 5
80 2 136 -1 173 -11z m18398 -19 c15 -6 41 -16 57 -23 199 -84 362 -209 428
-328 21 -38 27 -61 27 -110 -1 -81 -16 -102 -72 -101 -23 1 -44 7 -46 13 -2 6
-9 11 -16 11 -7 0 -63 49 -124 109 -171 169 -235 206 -352 206 -98 0 -160 -22
-271 -96 -112 -76 -181 -152 -229 -254 -50 -106 -52 -118 -57 -275 -6 -178 13
-276 79 -405 58 -115 145 -194 254 -231 104 -36 293 -12 375 47 15 10 30 19
34 19 13 0 145 112 155 130 11 21 122 109 162 129 14 7 45 14 68 15 68 1 96
-52 68 -133 -38 -110 -209 -312 -321 -377 -126 -74 -205 -93 -407 -95 -88 -1
-116 3 -171 23 -108 40 -198 97 -285 180 -169 163 -257 334 -291 570 -18 125
-13 207 24 358 57 237 248 467 468 562 85 37 152 59 210 68 61 11 195 4 233
-12z m11902 11 c58 -5 152 -14 210 -19 334 -28 379 -37 400 -75 32 -60 -8
-178 -192 -555 -66 -135 -123 -254 -128 -265 -8 -19 -21 -51 -56 -132 -13 -32
-61 -134 -96 -205 -4 -10 -8 -27 -8 -37 0 -11 -4 -23 -10 -26 -5 -3 -10 -17
-10 -30 0 -13 -4 -27 -10 -30 -5 -3 -10 -17 -10 -30 0 -13 -4 -27 -10 -30 -5
-3 -10 -14 -10 -23 0 -27 -71 -203 -98 -244 -44 -67 -96 -63 -142 9 -17 26
-30 59 -30 74 0 69 77 380 120 484 5 11 23 58 40 105 18 47 43 109 56 138 13
29 24 57 24 62 0 6 5 10 10 10 6 0 10 6 10 14 0 17 50 108 107 193 70 105 135
231 131 255 -2 14 -11 24 -23 26 -11 2 -29 7 -40 12 -11 5 -69 11 -130 14
-379 19 -477 40 -534 112 -66 83 47 184 219 197 87 7 106 6 210 -4z m-33468
-16 c21 -25 34 -67 47 -148 23 -150 26 -262 26 -895 l0 -655 -145 -13 c-80 -7
-203 -11 -275 -9 -148 5 -243 30 -347 93 -100 61 -205 192 -248 309 -21 57
-30 126 -30 229 0 137 14 215 51 288 5 10 9 23 9 28 0 19 77 125 114 158 85
74 205 121 356 137 176 19 230 37 256 88 9 16 20 59 26 96 32 216 34 225 65
274 18 28 30 37 52 37 15 0 35 -8 43 -17z m25711 -7 c70 -30 117 -95 117 -161
0 -39 -5 -52 -30 -75 -62 -57 -147 -44 -188 29 -33 58 -31 158 3 195 27 29 51
32 98 12z m1850 -13 c23 -21 47 -71 47 -98 0 -11 4 -25 9 -30 11 -12 17 -73
32 -355 21 -375 14 -759 -13 -776 -4 -3 -8 -16 -8 -30 0 -13 -4 -32 -9 -42 -5
-9 -22 -44 -37 -77 -36 -74 -159 -202 -229 -238 -155 -78 -328 -80 -476 -6
-55 28 -109 78 -109 103 0 7 -7 27 -16 45 -35 71 -74 198 -74 243 0 52 24 88
58 88 31 0 96 -50 132 -102 86 -124 136 -161 248 -188 89 -21 204 18 229 79
35 84 41 210 17 366 -19 116 -22 651 -5 771 22 162 59 244 121 267 21 8 62 -2
83 -20z m2419 0 c18 -21 27 -49 39 -123 15 -90 30 -312 24 -356 -7 -50 20
-331 39 -399 22 -80 32 -100 71 -136 45 -42 65 -78 65 -119 0 -89 -181 -431
-281 -531 -81 -81 -139 -38 -139 105 0 81 -15 151 -36 173 -30 30 -111 50
-259 63 -172 15 -253 33 -313 70 -36 22 -72 74 -72 105 0 154 538 943 768
1127 52 42 72 46 94 21z m2401 -3 c154 -22 282 -128 358 -295 25 -55 29 -77
29 -150 0 -87 -6 -106 -49 -159 -20 -26 -22 -39 -19 -86 3 -48 12 -68 54 -131
63 -93 92 -163 106 -257 41 -280 -147 -543 -442 -615 -114 -28 -145 -30 -222
-13 -195 43 -368 183 -408 328 -11 42 -10 50 7 80 27 46 58 60 117 54 62 -7
110 -43 150 -113 34 -60 75 -86 164 -104 108 -22 250 14 321 81 27 26 35 46
54 129 6 24 -8 120 -23 156 -42 104 -88 163 -149 195 -20 9 -61 21 -91 25 -71
10 -104 27 -120 64 -18 45 2 91 65 150 37 33 78 58 124 76 92 35 131 77 131
141 0 57 -17 89 -73 141 -88 81 -191 108 -267 70 -19 -10 -73 -51 -120 -92
-158 -138 -226 -151 -268 -52 -62 145 174 355 428 380 65 7 75 7 143 -3z
m3704 -30 c73 -32 106 -117 62 -158 -32 -30 -147 -62 -245 -67 -49 -3 -129 -8
-179 -10 -117 -7 -194 -28 -238 -64 -23 -20 -47 -75 -47 -111 0 -55 60 -80
313 -131 164 -33 228 -55 299 -106 109 -78 155 -160 184 -328 25 -145 12 -307
-31 -400 -39 -83 -160 -186 -278 -239 -77 -34 -231 -69 -307 -69 -122 -1 -247
62 -375 188 -98 96 -135 158 -135 226 0 39 4 51 26 68 15 12 41 21 58 21 38 0
106 -42 156 -95 104 -111 296 -181 422 -155 107 23 177 86 206 186 17 60 15
93 -12 172 -26 78 -51 117 -111 177 -125 126 -174 133 -400 60 -161 -52 -235
-43 -270 31 -15 32 -17 55 -12 143 3 58 13 138 21 176 9 39 23 104 32 145 33
162 69 254 116 297 51 48 91 56 308 63 262 9 382 4 437 -20z m-30787 10 c82
-16 110 -52 84 -106 -18 -36 -63 -67 -144 -99 -74 -29 -145 -33 -154 -9 -3 9
-6 44 -6 79 0 57 3 67 29 93 47 47 102 59 191 42z m23247 -24 c28 -44 49 -107
72 -219 50 -242 65 -371 61 -522 -4 -156 -4 -365 0 -535 4 -188 -37 -355 -94
-381 -32 -15 -75 1 -103 39 -47 64 -63 255 -63 768 0 328 -2 384 -14 384 -8 0
-18 -4 -21 -10 -3 -5 -28 -10 -55 -10 -27 0 -52 -4 -55 -10 -3 -5 -25 -10 -48
-10 -23 -1 -60 -4 -82 -8 -62 -12 -144 8 -168 40 -20 26 -20 30 -5 61 21 45
107 117 193 163 144 77 246 157 277 218 11 22 25 47 30 54 19 23 52 13 75 -22z
m2759 23 c114 -12 174 -40 188 -87 12 -44 -10 -81 -66 -110 -58 -30 -106 -41
-223 -52 -296 -29 -375 -65 -375 -173 0 -30 6 -49 19 -61 28 -25 116 -53 254
-80 319 -62 425 -161 468 -433 12 -82 4 -187 -22 -251 -5 -13 -9 -29 -9 -37 0
-18 -52 -129 -62 -133 -4 -2 -8 -8 -8 -13 0 -25 -96 -120 -167 -166 -232 -148
-517 -120 -706 70 -112 113 -187 213 -187 252 0 30 44 65 80 65 83 0 214 -70
330 -177 94 -86 109 -95 165 -95 34 -1 59 8 113 40 104 62 141 110 201 255 15
37 14 177 -1 230 -18 60 -90 130 -150 145 -98 25 -188 14 -465 -54 -101 -25
-188 -42 -194 -39 -11 7 -10 15 11 150 5 33 14 94 19 135 39 312 76 463 132
540 33 45 73 66 149 79 78 12 393 13 506 0z m-26045 -390 c72 -23 125 -57 254
-164 116 -96 191 -189 232 -286 23 -56 26 -78 26 -169 -1 -86 -5 -119 -27
-183 -33 -98 -85 -201 -148 -295 -91 -135 -157 -180 -295 -202 -191 -31 -392
41 -522 186 -57 65 -120 179 -147 269 -14 47 -18 91 -17 200 1 126 4 147 27
209 68 180 159 272 377 380 71 35 153 63 190 65 9 1 31 -4 50 -10z m-6731 -34
c36 -18 88 -61 151 -124 85 -87 102 -110 152 -212 77 -157 97 -281 51 -320
-14 -11 -127 -26 -374 -50 -245 -23 -308 -31 -403 -55 -39 -9 -58 -41 -51 -84
7 -42 29 -93 46 -108 69 -55 200 -81 316 -62 113 19 171 48 257 130 89 85 133
107 173 88 59 -29 53 -99 -20 -207 -102 -152 -239 -233 -446 -262 -103 -14
-224 -2 -299 31 -122 53 -274 279 -317 467 -38 169 1 425 86 559 69 107 210
193 368 223 30 6 64 13 75 15 11 3 56 3 100 2 64 -3 92 -9 135 -31z m2497 -15
c59 -21 129 -45 155 -52 87 -22 250 -210 285 -327 30 -101 15 -188 -42 -245
-42 -42 -96 -56 -260 -68 -264 -18 -437 -37 -449 -49 -6 -5 -19 -9 -29 -9 -30
0 -77 -39 -77 -63 0 -12 17 -44 38 -72 73 -97 224 -139 372 -101 78 20 126 47
205 117 59 52 124 88 158 89 25 0 57 -36 57 -65 0 -24 -4 -34 -32 -87 -6 -13
-18 -36 -27 -53 -8 -16 -51 -67 -96 -113 -93 -92 -162 -130 -278 -152 -174
-32 -378 37 -486 165 -46 53 -111 166 -111 191 0 8 -4 14 -9 14 -5 0 -11 12
-14 28 -3 15 -15 68 -26 117 -30 131 -28 258 4 331 57 128 252 325 407 409 84
45 120 45 255 -5z m7202 14 c12 -15 21 -36 21 -48 0 -12 4 -26 9 -31 5 -6 11
-30 14 -55 48 -388 50 -869 4 -1035 -17 -62 -32 -75 -93 -75 -68 0 -81 6 -98
44 -34 76 -39 149 -32 463 8 374 23 585 46 638 5 11 11 32 14 46 8 39 44 79
71 79 14 0 32 -11 44 -26z m916 -14 c131 -10 174 -19 237 -49 120 -58 195
-197 214 -399 9 -99 -16 -726 -30 -739 -10 -10 -507 -45 -656 -47 -145 -1
-158 1 -204 23 -37 18 -58 38 -87 83 -89 139 -109 272 -56 380 36 73 121 151
218 200 79 40 276 108 312 108 27 0 180 77 214 108 23 21 24 25 11 45 -28 43
-141 85 -233 87 -112 3 -122 1 -128 -19 -3 -14 -20 -22 -63 -31 -59 -12 -132
-34 -169 -50 -91 -39 -125 -27 -125 46 0 55 16 88 67 135 54 51 93 76 170 109
59 26 76 29 133 24 36 -2 115 -9 175 -14z m-2460 -18 c85 -20 173 -69 206
-115 39 -54 91 -166 114 -242 9 -33 21 -69 25 -80 22 -53 31 -228 16 -315 -22
-127 -78 -238 -163 -324 -111 -112 -253 -165 -446 -166 -115 -1 -151 -17 -184
-80 -12 -25 -23 -60 -23 -79 0 -41 -26 -145 -46 -183 -27 -52 -73 -88 -114
-88 -41 0 -68 23 -93 80 -22 50 -41 332 -33 499 3 75 9 231 12 346 3 116 9
219 15 230 5 11 15 115 22 231 14 238 19 252 90 284 38 17 65 19 297 16 148
-2 276 -8 305 -14z m16110 2 c109 -6 180 -27 196 -55 19 -37 -44 -97 -156
-148 -147 -67 -176 -133 -210 -490 -21 -210 -64 -407 -98 -449 -19 -24 -88
-53 -115 -50 -36 4 -58 50 -76 159 -47 269 -46 831 0 921 17 33 78 64 182 93
34 10 65 22 69 28 3 5 27 7 57 3 28 -3 96 -9 151 -12z m2265 2 c106 -20 138
-31 200 -68 127 -77 150 -256 40 -313 -40 -21 -57 -19 -115 11 -50 26 -105 78
-105 100 0 6 -17 27 -39 47 -62 56 -155 61 -249 14 -55 -26 -86 -64 -125 -147
-16 -36 -33 -72 -37 -80 -4 -9 -8 -82 -9 -163 -2 -171 11 -223 71 -292 57 -64
116 -89 213 -89 102 1 140 18 224 99 93 88 172 124 245 111 86 -16 101 -93 36
-179 -64 -86 -120 -140 -194 -188 -166 -109 -335 -122 -506 -37 -155 76 -270
218 -330 408 -34 106 -28 278 11 378 64 161 193 309 306 352 122 46 244 58
363 36z m-17219 -22 c85 -27 94 -67 27 -116 -40 -29 -69 -42 -128 -58 -77 -20
-144 -58 -165 -93 -25 -41 -42 -151 -55 -352 -11 -178 -21 -247 -59 -410 -32
-135 -45 -159 -98 -181 -43 -19 -66 -11 -98 30 -22 29 -25 44 -28 132 -3 102
4 250 23 484 6 74 14 193 17 264 4 113 8 135 30 175 36 65 58 86 116 112 88
38 315 45 418 13z m-3341 -1 c28 -15 36 -25 38 -52 6 -65 -84 -130 -226 -161
-66 -15 -109 -50 -121 -98 -13 -51 -30 -275 -30 -407 -1 -118 -15 -272 -33
-345 -16 -64 -51 -107 -100 -122 -38 -11 -42 -10 -59 11 -33 40 -39 95 -44
363 -3 145 -9 310 -15 368 -5 58 -12 176 -15 263 l-6 157 26 10 c14 6 65 10
113 11 48 0 110 4 137 8 28 4 106 8 175 9 102 2 131 -1 160 -15z m19286 3
c114 -20 237 -70 281 -113 55 -55 73 -109 73 -216 0 -106 -21 -216 -47 -252
-36 -50 -67 -56 -321 -66 -276 -10 -332 -22 -394 -78 -24 -21 -28 -33 -28 -76
0 -66 26 -115 76 -140 32 -16 58 -20 149 -19 144 1 255 35 377 114 202 131
246 62 103 -160 -85 -132 -170 -187 -323 -211 -223 -34 -460 86 -575 292 -59
106 -97 240 -97 345 0 204 115 424 274 526 96 62 280 84 452 54z m1984 1 c40
-32 60 -112 60 -236 0 -59 7 -163 16 -231 19 -153 14 -228 -27 -435 -35 -174
-77 -282 -115 -291 -38 -10 -57 0 -75 36 -60 125 -69 313 -40 895 11 230 31
275 120 275 25 0 53 -6 61 -13z m9106 -448 c80 -14 88 -17 113 -38 44 -38 16
-108 -79 -194 l-52 -47 -66 6 c-37 3 -74 8 -82 11 -8 3 -53 9 -100 14 -162 15
-235 40 -287 98 -29 34 -29 42 5 73 37 34 95 59 167 74 76 15 303 17 381 3z"/>
<path d="M7970 2649 c-14 -4 -73 -7 -131 -8 -176 -2 -188 -15 -188 -196 0
-201 25 -272 101 -290 44 -11 382 -11 433 -1 40 8 62 15 111 38 61 29 101 161
91 299 -11 133 -25 144 -207 153 -69 3 -138 7 -155 9 -16 2 -41 0 -55 -4z"/>
<path d="M4479 2225 c-80 -42 -145 -132 -172 -240 -13 -52 -13 -218 0 -271 24
-101 107 -216 183 -254 124 -63 252 -13 320 125 23 47 25 60 25 215 0 146 -3
173 -23 236 -59 179 -199 259 -333 189z"/>
<path d="M34705 2316 c-103 -47 -275 -298 -275 -401 0 -56 66 -88 134 -65 104
34 219 236 220 388 1 92 -14 107 -79 78z"/>
<path d="M10099 2231 c-75 -25 -135 -83 -178 -174 -64 -138 -67 -344 -6 -483
46 -104 168 -158 276 -123 236 76 375 282 325 479 -45 173 -175 296 -323 305
-38 3 -80 1 -94 -4z"/>
<path d="M3214 2235 c-73 -23 -101 -42 -122 -82 -60 -111 94 -195 272 -149
118 31 172 75 162 131 -7 37 -65 90 -109 100 -62 13 -162 14 -203 0z"/>
<path d="M5810 2253 c-57 -9 -71 -15 -105 -44 -29 -25 -35 -38 -35 -70 0 -77
24 -101 120 -118 87 -15 370 17 370 42 0 33 -102 137 -163 165 -42 19 -141 33
-187 25z"/>
<path d="M14010 1710 c-8 -5 -32 -10 -52 -10 -20 0 -40 -4 -43 -10 -3 -5 -15
-10 -25 -10 -11 0 -37 -17 -59 -38 -31 -29 -41 -47 -46 -86 -5 -29 -4 -56 2
-65 39 -63 390 -67 461 -6 24 21 27 31 30 102 4 74 2 82 -21 106 -23 26 -28
27 -128 27 -57 0 -111 -5 -119 -10z"/>
<path d="M11391 2259 c-65 -11 -108 -45 -138 -109 -37 -79 -45 -143 -39 -315
4 -144 10 -204 32 -328 13 -77 95 -109 228 -88 95 16 169 53 237 120 91 91
113 176 89 344 -10 67 -18 94 -41 139 -5 10 -9 23 -9 28 0 6 -18 37 -40 69
-44 66 -115 131 -141 131 -10 0 -21 5 -24 10 -7 12 -78 11 -154 -1z"/>
<path d="M28489 2235 c-92 -25 -139 -64 -139 -113 0 -34 15 -58 54 -81 65 -40
134 -55 256 -55 97 0 121 4 150 20 116 67 48 182 -137 230 -64 17 -121 16
-184 -1z"/>
</g>
</svg>
